<?xml version="1.0" standalone="no"?>
<!DOCTYPE svg PUBLIC "-//W3C//DTD SVG 20010904//EN"
 "http://www.w3.org/TR/2001/REC-SVG-20010904/DTD/svg10.dtd">
<svg version="1.0" xmlns="http://www.w3.org/2000/svg"
 width="200.000000pt" height="200.000000pt" viewBox="0 0 200.000000 200.000000"
 preserveAspectRatio="xMidYMid meet">
<metadata>
Created by potrace 1.14, written by Peter Selinger 2001-2017
</metadata>
<g transform="translate(0.000000,200.000000) scale(0.100000,-0.100000)"
fill="#000000" stroke="none">
<path d="M715 1790 c-45 -10 -118 -46 -139 -69 -16 -18 -18 -33 -12 -148 7
-157 18 -369 20 -403 1 -25 0 -25 -82 -26 -68 0 -86 -4 -101 -20 -18 -19 -245
-384 -274 -440 -9 -18 -15 -40 -13 -50 3 -18 11 -95 22 -219 10 -116 15 -140
33 -156 19 -16 238 -20 1076 -21 265 0 246 -2 275 25 64 57 270 246 312 285
45 42 47 46 43 91 -2 25 -7 93 -9 151 -15 300 -17 314 -39 329 -21 15 -103 17
-724 20 l-133 1 3 301 3 301 -23 18 c-36 28 -168 45 -238 30z"/>
</g>
</svg>
