<?xml version="1.0" encoding="UTF-8" standalone="no"?>
<!-- Generator: Adobe Illustrator 23.0.3, SVG Export Plug-In . SVG Version: 6.00 Build 0)  -->

<svg
   version="1.1"
   id="Layer_1"
   x="0px"
   y="0px"
   viewBox="0 0 264 280"
   style="enable-background:new 0 0 264 280;"
   xml:space="preserve"
   sodipodi:docname="avataaars.svg"
   inkscape:version="1.2.1 (9c6d41e410, 2022-07-14)"
   xmlns:inkscape="http://www.inkscape.org/namespaces/inkscape"
   xmlns:sodipodi="http://sodipodi.sourceforge.net/DTD/sodipodi-0.dtd"
   xmlns="http://www.w3.org/2000/svg"
   xmlns:svg="http://www.w3.org/2000/svg"
   xmlns:rdf="http://www.w3.org/1999/02/22-rdf-syntax-ns#"
   xmlns:cc="http://creativecommons.org/ns#"
   xmlns:dc="http://purl.org/dc/elements/1.1/"><metadata
   id="metadata4115"><rdf:RDF><cc:Work
       rdf:about=""><dc:format>image/svg+xml</dc:format><dc:type
         rdf:resource="http://purl.org/dc/dcmitype/StillImage" /></cc:Work></rdf:RDF></metadata><defs
   id="defs4113" /><sodipodi:namedview
   pagecolor="#ffffff"
   bordercolor="#666666"
   borderopacity="1"
   objecttolerance="10"
   gridtolerance="10"
   guidetolerance="10"
   inkscape:pageopacity="0"
   inkscape:pageshadow="2"
   inkscape:window-width="1920"
   inkscape:window-height="1011"
   id="namedview4111"
   showgrid="false"
   inkscape:zoom="3.0607143"
   inkscape:cx="44.924154"
   inkscape:cy="144.41073"
   inkscape:window-x="0"
   inkscape:window-y="0"
   inkscape:window-maximized="1"
   inkscape:current-layer="g4104"
   inkscape:showpageshadow="0"
   inkscape:pagecheckerboard="0"
   inkscape:deskcolor="#d1d1d1" />
<style
   type="text/css"
   id="style3934">
	.st0{fill-rule:evenodd;clip-rule:evenodd;fill:#E6E6E6;}
	.st1{filter:url(#Adobe_OpacityMaskFilter);}
	.st2{fill-rule:evenodd;clip-rule:evenodd;fill:#FFFFFF;}
	.st3{mask:url(#mask-2_1_);}
	.st4{fill-rule:evenodd;clip-rule:evenodd;fill:#2C3E50;}
	.st5{filter:url(#Adobe_OpacityMaskFilter_1_);}
	.st6{mask:url(#mask-4_1_);}
	.st7{fill-rule:evenodd;clip-rule:evenodd;fill:#D0C6AC;}
	.st8{filter:url(#Adobe_OpacityMaskFilter_2_);}
	.st9{mask:url(#mask-6_1_);}
	.st10{fill-rule:evenodd;clip-rule:evenodd;fill:#EDB98A;}
	.st11{filter:url(#Adobe_OpacityMaskFilter_3_);}
	.st12{mask:url(#mask-6_2_);fill-rule:evenodd;clip-rule:evenodd;fill-opacity:0.1;}
	.st13{filter:url(#Adobe_OpacityMaskFilter_4_);}
	.st14{mask:url(#react-mask-952_1_);}
	.st15{filter:url(#Adobe_OpacityMaskFilter_5_);}
	.st16{opacity:0.6;mask:url(#react-mask-952_2_);}
	.st17{fill-rule:evenodd;clip-rule:evenodd;fill-opacity:0.16;}
	.st18{fill-rule:evenodd;clip-rule:evenodd;fill-opacity:0.7;}
	.st19{filter:url(#Adobe_OpacityMaskFilter_6_);}
	.st20{mask:url(#react-mask-934_1_);fill-rule:evenodd;clip-rule:evenodd;fill:#FFFFFF;}
	.st21{filter:url(#Adobe_OpacityMaskFilter_7_);}
	.st22{mask:url(#react-mask-934_2_);}
	.st23{fill-rule:evenodd;clip-rule:evenodd;fill:#FF4F6D;}
	.st24{fill-rule:evenodd;clip-rule:evenodd;fill-opacity:0.6;}
	.st25{filter:url(#Adobe_OpacityMaskFilter_8_);}
	.st26{mask:url(#react-mask-925_1_);}
	.st27{fill-rule:evenodd;clip-rule:evenodd;fill:#28354B;}
	.st28{filter:url(#Adobe_OpacityMaskFilter_9_);}
	.st29{mask:url(#react-mask-924_1_);}
	.st30{fill-rule:evenodd;clip-rule:evenodd;fill:#4A312C;}
</style>
<desc
   id="desc3936">Created with getavataaars.com</desc>
<g
   id="g4108">
	<g
   transform="translate(-825.000000, -1100.000000)"
   id="g4106">
		<g
   transform="translate(825.000000, 1100.000000)"
   id="g4104">
			<g
   id="Circle"
   transform="translate(12,40)"
   style="fill:#441151;fill-opacity:1">
				<g
   id="Circle-Background"
   style="fill:#441151;fill-opacity:1">
					<circle
   class="st0"
   cx="120"
   cy="120"
   r="120"
   id="circle3938"
   style="clip-rule:evenodd;fill:#441151;fill-rule:evenodd;fill-opacity:1" />
				</g>
				<defs
   id="defs3944">
					<filter
   id="Adobe_OpacityMaskFilter"
   filterUnits="userSpaceOnUse"
   x="0"
   y="0"
   width="240"
   height="240">
						<feColorMatrix
   type="matrix"
   values="1 0 0 0 0  0 1 0 0 0  0 0 1 0 0  0 0 0 1 0"
   id="feColorMatrix3941" />
					</filter>
				</defs>
				<mask
   maskUnits="userSpaceOnUse"
   x="0"
   y="0"
   width="240"
   height="240"
   id="mask-2_1_">
					<g
   class="st1"
   id="g3947"
   style="filter:url(#Adobe_OpacityMaskFilter)">
						<circle
   id="path-1_1_"
   class="st2"
   cx="120"
   cy="120"
   r="120"
   style="clip-rule:evenodd;fill:#ffffff;fill-rule:evenodd" />
					</g>
				</mask>
				<g
   class="st3"
   mask="url(#mask-2_1_)"
   id="g3952"
   style="fill:#441151;fill-opacity:1">
					<rect
   class="st4"
   width="240"
   height="240"
   id="rect3950"
   x="0"
   y="0"
   style="clip-rule:evenodd;fill:#441151;fill-rule:evenodd;fill-opacity:1" />
				</g>
			</g>
			<g
   id="Mask">
			</g>
			<defs
   id="defs3959">
				<filter
   id="Adobe_OpacityMaskFilter_1_"
   filterUnits="userSpaceOnUse"
   x="-1"
   y="0"
   width="265"
   height="280">
					<feColorMatrix
   type="matrix"
   values="1 0 0 0 0  0 1 0 0 0  0 0 1 0 0  0 0 0 1 0"
   id="feColorMatrix3956" />
				</filter>
			</defs>
			<mask
   maskUnits="userSpaceOnUse"
   x="-1"
   y="0"
   width="265"
   height="280"
   id="mask-4_1_">
				<g
   class="st5"
   id="g3962">
					<path
   id="path-3_1_"
   class="st2"
   d="M12,160c0,66.3,53.7,120,120,120s120-53.7,120-120h12V0H0v160H12z" />
				</g>
			</mask>
			<g
   id="Avataaar"
   class="st6"
   mask="url(#mask-4_1_)">
				<g
   id="Body"
   transform="matrix(0.9625,0,0,0.99832776,35.75,36.204013)"
   style="fill:#ffdebd;fill-opacity:1">
					<g
   id="g3967"
   style="fill:#ffdebd;fill-opacity:1">
						<path
   class="st7"
   d="M 124,144.6 V 163 h 4 v 0 c 39.8,0 72,32.2 72,72 v 9 H 0 v -9 c 0,-39.8 32.2,-72 72,-72 v 0 h 4 V 144.6 C 58.8,136.4 46.4,119.7 44.3,99.9 38.5,99.1 34,94.1 34,88 V 74 C 34,68.1 38.3,63.1 44,62.2 V 56 56 C 44,25.1 69.1,0 100,0 v 0 0 c 30.9,0 56,25.1 56,56 v 6.2 c 5.7,1 10,5.9 10,11.8 v 14 c 0,6.1 -4.5,11.1 -10.3,11.9 -2.1,19.8 -14.5,36.5 -31.7,44.7 z"
   id="path3965"
   inkscape:connector-curvature="0"
   style="clip-rule:evenodd;fill:#ffdebd;fill-opacity:1;fill-rule:evenodd" />
					</g>
					<defs
   id="defs3972">
						<filter
   id="Adobe_OpacityMaskFilter_2_"
   filterUnits="userSpaceOnUse"
   x="-32"
   y="0"
   width="264"
   height="244">
							<feColorMatrix
   type="matrix"
   values="1 0 0 0 0  0 1 0 0 0  0 0 1 0 0  0 0 0 1 0"
   id="feColorMatrix3969" />
						</filter>
					</defs>
					<mask
   maskUnits="userSpaceOnUse"
   x="-32"
   y="0"
   width="264"
   height="244"
   id="mask-6_1_">
						<g
   class="st8"
   id="g3975"
   style="filter:url(#Adobe_OpacityMaskFilter_2_)">
							<path
   id="path-5_1_"
   class="st2"
   d="M 124,144.6 V 163 h 4 v 0 c 39.8,0 72,32.2 72,72 v 9 H 0 v -9 c 0,-39.8 32.2,-72 72,-72 v 0 h 4 V 144.6 C 58.8,136.4 46.4,119.7 44.3,99.9 38.5,99.1 34,94.1 34,88 V 74 C 34,68.1 38.3,63.1 44,62.2 V 56 56 C 44,25.1 69.1,0 100,0 v 0 0 c 30.9,0 56,25.1 56,56 v 6.2 c 5.7,1 10,5.9 10,11.8 v 14 c 0,6.1 -4.5,11.1 -10.3,11.9 -2.1,19.8 -14.5,36.5 -31.7,44.7 z"
   inkscape:connector-curvature="0"
   style="clip-rule:evenodd;fill:#ffffff;fill-rule:evenodd" />
						</g>
					</mask>
					<g
   class="st9"
   mask="url(#mask-6_1_)"
   id="g3981"
   style="fill:#ffdebd;fill-opacity:1">
						<g
   id="Color"
   transform="translate(-32)"
   style="fill:#ffdebd;fill-opacity:1">
							<rect
   class="st10"
   width="264"
   height="244"
   id="rect3978"
   x="0"
   y="0"
   style="clip-rule:evenodd;fill:#ffdebd;fill-opacity:1;fill-rule:evenodd" />
						</g>
					</g>
					<defs
   id="defs3986">
						<filter
   id="Adobe_OpacityMaskFilter_3_"
   filterUnits="userSpaceOnUse"
   x="44"
   y="79"
   width="112"
   height="79">
							<feColorMatrix
   type="matrix"
   values="1 0 0 0 0  0 1 0 0 0  0 0 1 0 0  0 0 0 1 0"
   id="feColorMatrix3983" />
						</filter>
					</defs>
					<mask
   maskUnits="userSpaceOnUse"
   x="44"
   y="79"
   width="112"
   height="79"
   id="mask-6_2_">
						<g
   class="st11"
   id="g3989"
   style="filter:url(#Adobe_OpacityMaskFilter_3_)">
							<path
   id="path-5_2_"
   class="st2"
   d="M 124,144.6 V 163 h 4 v 0 c 39.8,0 72,32.2 72,72 v 9 H 0 v -9 c 0,-39.8 32.2,-72 72,-72 v 0 h 4 V 144.6 C 58.8,136.4 46.4,119.7 44.3,99.9 38.5,99.1 34,94.1 34,88 V 74 C 34,68.1 38.3,63.1 44,62.2 V 56 56 C 44,25.1 69.1,0 100,0 v 0 0 c 30.9,0 56,25.1 56,56 v 6.2 c 5.7,1 10,5.9 10,11.8 v 14 c 0,6.1 -4.5,11.1 -10.3,11.9 -2.1,19.8 -14.5,36.5 -31.7,44.7 z"
   inkscape:connector-curvature="0"
   style="clip-rule:evenodd;fill:#ffffff;fill-rule:evenodd" />
						</g>
					</mask>
					<path
   id="Neck-Shadow"
   class="st12"
   d="m 156,79 v 23 c 0,30.9 -25.1,56 -56,56 -30.9,0 -56,-25.1 -56,-56 V 79 94 c 0,30.9 25.1,56 56,56 30.9,0 56,-25.1 56,-56 z"
   mask="url(#mask-6_2_)"
   inkscape:connector-curvature="0"
   style="clip-rule:evenodd;fill:#ffdebd;fill-opacity:1;fill-rule:evenodd" />
				</g>
				<g
   transform="translate(0.000000, 170.000000)"
   id="g4024">
					<g
   id="Clothes">
						<path
   class="st0"
   d="M166,29.3c37,3,66,34,66,71.8v8.9H32v-8.9C32,63,61.6,31.8,99,29.2c0,0.4,0,0.7,0,1.1        c0,11.9,15,21.5,33.5,21.5S166,42.2,166,30.3C166,30,166,29.6,166,29.3z"
   id="path3994"
   inkscape:label="path3994" />
					</g>
					<defs
   id="defs4000">
						<filter
   id="Adobe_OpacityMaskFilter_4_"
   filterUnits="userSpaceOnUse"
   x="0"
   y="0"
   width="264"
   height="110">
							<feColorMatrix
   type="matrix"
   values="1 0 0 0 0  0 1 0 0 0  0 0 1 0 0  0 0 0 1 0"
   id="feColorMatrix3997" />
						</filter>
					</defs>
					<mask
   maskUnits="userSpaceOnUse"
   x="0"
   y="0"
   width="264"
   height="110"
   id="react-mask-952_1_">
						<g
   class="st13"
   id="g4003">
							<path
   id="react-path-951_1_"
   class="st2"
   d="M166,29.3c37,3,66,34,66,71.8v8.9H32v-8.9C32,63,61.6,31.8,99,29.2         c0,0.4,0,0.7,0,1.1c0,11.9,15,21.5,33.5,21.5S166,42.2,166,30.3C166,30,166,29.6,166,29.3z" />
						</g>
					</mask>
					<g
   class="st14"
   mask="url(#react-mask-952_1_)"
   id="g4008"
   style="fill:#c10d0d;fill-opacity:1">
						<rect
   class="st2"
   width="264"
   height="110"
   id="rect4006"
   x="0"
   y="0"
   style="clip-rule:evenodd;fill:#b3d900;fill-opacity:1;fill-rule:evenodd" />
					</g>
					<defs
   id="defs4013">
						<filter
   id="Adobe_OpacityMaskFilter_5_"
   filterUnits="userSpaceOnUse"
   x="92.9"
   y="4.9"
   width="79.3"
   height="53.8">
							<feColorMatrix
   type="matrix"
   values="1 0 0 0 0  0 1 0 0 0  0 0 1 0 0  0 0 0 1 0"
   id="feColorMatrix4010" />
						</filter>
					</defs>
					<mask
   maskUnits="userSpaceOnUse"
   x="92.9"
   y="4.9"
   width="79.3"
   height="53.8"
   id="react-mask-952_2_">
						<g
   class="st15"
   id="g4016">
							<path
   id="react-path-951_2_"
   class="st2"
   d="M166,29.3c37,3,66,34,66,71.8v8.9H32v-8.9C32,63,61.6,31.8,99,29.2         c0,0.4,0,0.7,0,1.1c0,11.9,15,21.5,33.5,21.5S166,42.2,166,30.3C166,30,166,29.6,166,29.3z" />
						</g>
					</mask>
					<g
   id="Shadowy"
   class="st16"
   mask="url(#react-mask-952_2_)">
						<g
   transform="translate(92.000000, 4.000000)"
   id="g4021">
							<ellipse
   class="st17"
   cx="40.5"
   cy="27.8"
   rx="39.6"
   ry="26.9"
   id="ellipse4019" />
						</g>
					</g>
				</g>
				<g
   id="Face"
   transform="translate(76,82)">
					<g
   transform="translate(2,52)"
   id="g4055">
						<g
   id="Mouth">
							<path
   class="st18"
   d="M 35.1,15.1 C 36.2,24.6 44.2,32 54,32 c 9.8,0 17.9,-7.4 18.9,-17 0.1,-0.8 -0.8,-2 -1.8,-2 -14.9,0 -26.3,0 -34,0 -1.1,0 -2.1,1.2 -2,2.1 z"
   id="path4026"
   inkscape:connector-curvature="0"
   style="clip-rule:evenodd;fill-opacity:0.7;fill-rule:evenodd" />
						</g>
						<defs
   id="defs4032">
							<filter
   id="Adobe_OpacityMaskFilter_6_"
   filterUnits="userSpaceOnUse"
   x="39"
   y="2"
   width="31"
   height="16">
								<feColorMatrix
   type="matrix"
   values="1 0 0 0 0  0 1 0 0 0  0 0 1 0 0  0 0 0 1 0"
   id="feColorMatrix4029" />
							</filter>
						</defs>
						<mask
   maskUnits="userSpaceOnUse"
   x="39"
   y="2"
   width="31"
   height="16"
   id="react-mask-934_1_">
							<g
   class="st19"
   id="g4035"
   style="filter:url(#Adobe_OpacityMaskFilter_6_)">
								<path
   id="react-path-933_1_"
   class="st2"
   d="M 35.1,15.1 C 36.2,24.6 44.2,32 54,32 c 9.8,0 17.9,-7.4 18.9,-17 0.1,-0.8 -0.8,-2 -1.8,-2 -14.9,0 -26.3,0 -34,0 -1.1,0 -2.1,1.2 -2,2.1 z"
   inkscape:connector-curvature="0"
   style="clip-rule:evenodd;fill:#ffffff;fill-rule:evenodd" />
							</g>
						</mask>
						<path
   id="Teeth"
   class="st20"
   d="m 44,2 h 21 c 2.8,0 5,2.2 5,5 v 6 c 0,2.8 -2.2,5 -5,5 H 44 c -2.8,0 -5,-2.2 -5,-5 V 7 c 0,-2.8 2.2,-5 5,-5 z"
   mask="url(#react-mask-934_1_)"
   inkscape:connector-curvature="0"
   style="clip-rule:evenodd;fill:#ffffff;fill-rule:evenodd" />
						<defs
   id="defs4042">
							<filter
   id="Adobe_OpacityMaskFilter_7_"
   filterUnits="userSpaceOnUse"
   x="38"
   y="24"
   width="32"
   height="22">
								<feColorMatrix
   type="matrix"
   values="1 0 0 0 0  0 1 0 0 0  0 0 1 0 0  0 0 0 1 0"
   id="feColorMatrix4039" />
							</filter>
						</defs>
						<mask
   maskUnits="userSpaceOnUse"
   x="38"
   y="24"
   width="32"
   height="22"
   id="react-mask-934_2_">
							<g
   class="st21"
   id="g4045"
   style="filter:url(#Adobe_OpacityMaskFilter_7_)">
								<path
   id="react-path-933_2_"
   class="st2"
   d="M 35.1,15.1 C 36.2,24.6 44.2,32 54,32 c 9.8,0 17.9,-7.4 18.9,-17 0.1,-0.8 -0.8,-2 -1.8,-2 -14.9,0 -26.3,0 -34,0 -1.1,0 -2.1,1.2 -2,2.1 z"
   inkscape:connector-curvature="0"
   style="clip-rule:evenodd;fill:#ffffff;fill-rule:evenodd" />
							</g>
						</mask>
						<g
   id="Tongue"
   class="st22"
   mask="url(#react-mask-934_2_)">
							<g
   transform="translate(38,24)"
   id="g4052">
								<circle
   class="st23"
   cx="11"
   cy="11"
   r="11"
   id="circle4048"
   style="clip-rule:evenodd;fill:#ff4f6d;fill-rule:evenodd" />
								<circle
   class="st23"
   cx="21"
   cy="11"
   r="11"
   id="circle4050"
   style="clip-rule:evenodd;fill:#ff4f6d;fill-rule:evenodd" />
							</g>
						</g>
					</g>
					<g
   transform="translate(28,40)"
   id="g4058">
						<path
   id="Nose"
   class="st17"
   d="m 16,8 c 0,4.4 5.4,8 12,8 v 0 c 6.6,0 12,-3.6 12,-8"
   inkscape:connector-curvature="0"
   style="clip-rule:evenodd;fill-opacity:0.16000001;fill-rule:evenodd" />
					</g>
					<g
   transform="translate(0,8)"
   id="g4063">
						<path
   id="Squint"
   class="st24"
   d="M 16.2,22.4 C 18,18.6 22.2,16 27,16 c 4.8,0 9,2.6 10.8,6.4 0.6,1.1 -0.2,2 -1,1.4 -2.5,-2.1 -5.9,-3.4 -9.8,-3.4 -3.7,0 -7.1,1.2 -9.6,3.2 -0.9,0.7 -1.8,0 -1.2,-1.2 z"
   inkscape:connector-curvature="0"
   style="clip-rule:evenodd;fill-opacity:0.6;fill-rule:evenodd" />
						<path
   class="st24"
   d="M 74.2,22.4 C 76,18.6 80.2,16 85,16 c 4.8,0 9,2.6 10.8,6.4 0.6,1.1 -0.2,2 -1,1.4 -2.5,-2.1 -5.9,-3.4 -9.8,-3.4 -3.7,0 -7.1,1.2 -9.6,3.2 -0.9,0.7 -1.8,0 -1.2,-1.2 z"
   id="path4061"
   inkscape:connector-curvature="0"
   style="clip-rule:evenodd;fill-opacity:0.6;fill-rule:evenodd" />
					</g>
					<g
   id="g4068">
						<path
   id="Eyebrow"
   class="st24"
   d="m 26.5,6.1 c -5.8,0.3 -15.2,4.5 -15,10.3 0,0.2 0.3,0.3 0.4,0.1 2.8,-3 22.3,-5.9 29.2,-4.4 0.6,0.1 1.1,-0.5 0.7,-0.9 C 38.5,7.5 31.7,5.9 26.5,6.1"
   inkscape:connector-curvature="0"
   style="clip-rule:evenodd;fill-opacity:0.6;fill-rule:evenodd" />
						<path
   class="st24"
   d="m 86.5,6.1 c 5.8,0.3 15.2,4.5 15,10.3 0,0.2 -0.3,0.3 -0.4,0.1 -2.8,-3 -22.3,-5.9 -29.2,-4.4 -0.6,0.1 -1.1,-0.5 -0.7,-0.9 3.3,-3.7 10.1,-5.3 15.3,-5.1"
   id="path4066"
   inkscape:connector-curvature="0"
   style="clip-rule:evenodd;fill-opacity:0.6;fill-rule:evenodd" />
					</g>
				</g>
				<g
   id="Top"
   style="fill:#4e3000;fill-opacity:1">
					<defs
   id="defs4074">
						<filter
   id="Adobe_OpacityMaskFilter_8_"
   filterUnits="userSpaceOnUse"
   x="-1"
   y="0"
   width="264"
   height="280">
							<feColorMatrix
   type="matrix"
   values="1 0 0 0 0  0 1 0 0 0  0 0 1 0 0  0 0 0 1 0"
   id="feColorMatrix4071" />
						</filter>
					</defs>
					<mask
   maskUnits="userSpaceOnUse"
   x="-1"
   y="0"
   width="264"
   height="280"
   id="react-mask-925_1_">
						<g
   class="st25"
   id="g4077"
   style="filter:url(#Adobe_OpacityMaskFilter_8_)">
							<rect
   id="react-path-927_1_"
   class="st2"
   width="264"
   height="280"
   x="0"
   y="0"
   style="clip-rule:evenodd;fill:#ffffff;fill-rule:evenodd" />
						</g>
					</mask>
					<g
   class="st26"
   mask="url(#react-mask-925_1_)"
   id="g4100"
   style="fill:#4e3000;fill-opacity:1">
						<g
   transform="translate(-1)"
   id="g4098"
   style="fill:#4e3000;fill-opacity:1">
							<g
   id="Short-Hair"
   style="fill:#4e3000;fill-opacity:1">
								<path
   class="st27"
   d="m 183.7,38.9 c 5.4,-5 6.7,-15 3.6,-21.5 -3.8,-8 -11.4,-9 -18.7,-5.5 -6.9,3.3 -13.1,4.4 -20.6,2.8 C 140.7,13.2 133.9,10.4 126.4,10 114,9.3 102,13.9 93.6,23.1 c -1.6,1.8 -2.9,3.8 -4.1,5.8 -1,1.6 -2.1,3.4 -2.5,5.3 -0.2,0.9 0.2,3.1 -0.3,3.8 -0.5,0.8 -2.3,1.5 -3.1,2.1 -1.6,1.2 -2.9,2.5 -4.2,4 -2.7,3.2 -4.1,6.6 -5.4,10.6 -4.1,13.2 -4.5,29 0.9,42 0.7,1.7 2.9,5.4 4.2,1.6 0.3,-0.7 -0.3,-3.2 -0.3,-3.9 0,-2.7 1.5,-20.7 8,-30.8 2.1,-3.3 12,-15.6 14,-15.7 1.1,1.7 11.9,12.5 39.9,11.2 12.7,-0.6 22.4,-6.3 24.7,-8.7 1,5.5 13,13.8 14.8,17.2 5.3,9.8 6.4,30.3 8.4,30.3 2,0 3.5,-5.2 3.9,-6.2 3.1,-7.4 3.6,-16.6 3.3,-24.6 C 195.5,57 191.3,45.9 183.7,38.9 Z"
   id="path4080"
   inkscape:connector-curvature="0"
   style="clip-rule:evenodd;fill:#4e3000;fill-rule:evenodd;fill-opacity:1" />
							</g>
							<defs
   id="defs4086">
								<filter
   id="Adobe_OpacityMaskFilter_9_"
   filterUnits="userSpaceOnUse"
   x="0"
   y="0"
   width="264"
   height="280">
									<feColorMatrix
   type="matrix"
   values="1 0 0 0 0  0 1 0 0 0  0 0 1 0 0  0 0 0 1 0"
   id="feColorMatrix4083" />
								</filter>
							</defs>
							<mask
   maskUnits="userSpaceOnUse"
   x="0"
   y="0"
   width="264"
   height="280"
   id="react-mask-924_1_">
								<g
   class="st28"
   id="g4089"
   style="filter:url(#Adobe_OpacityMaskFilter_9_)">
									<path
   id="react-path-926_1_"
   class="st2"
   d="m 183.7,38.9 c 5.4,-5 6.7,-15 3.6,-21.5 -3.8,-8 -11.4,-9 -18.7,-5.5 -6.9,3.3 -13.1,4.4 -20.6,2.8 C 140.7,13.2 133.9,10.4 126.4,10 114,9.3 102,13.9 93.6,23.1 c -1.6,1.8 -2.9,3.8 -4.1,5.8 -1,1.6 -2.1,3.4 -2.5,5.3 -0.2,0.9 0.2,3.1 -0.3,3.8 -0.5,0.8 -2.3,1.5 -3.1,2.1 -1.6,1.2 -2.9,2.5 -4.2,4 -2.7,3.2 -4.1,6.6 -5.4,10.6 -4.1,13.2 -4.5,29 0.9,42 0.7,1.7 2.9,5.4 4.2,1.6 0.3,-0.7 -0.3,-3.2 -0.3,-3.9 0,-2.7 1.5,-20.7 8,-30.8 2.1,-3.3 12,-15.6 14,-15.7 1.1,1.7 11.9,12.5 39.9,11.2 12.7,-0.6 22.4,-6.3 24.7,-8.7 1,5.5 13,13.8 14.8,17.2 5.3,9.8 6.4,30.3 8.4,30.3 2,0 3.5,-5.2 3.9,-6.2 3.1,-7.4 3.6,-16.6 3.3,-24.6 C 195.5,57 191.3,45.9 183.7,38.9 Z"
   inkscape:connector-curvature="0"
   style="clip-rule:evenodd;fill:#ffffff;fill-rule:evenodd" />
								</g>
							</mask>
							<g
   class="st29"
   mask="url(#react-mask-924_1_)"
   id="g4096"
   style="fill:#4e3000;fill-opacity:1">
								<g
   id="g4094"
   style="fill:#4e3000;fill-opacity:1">
									<rect
   class="st30"
   width="264"
   height="280"
   id="rect4092"
   x="0"
   y="0"
   style="clip-rule:evenodd;fill:#4e3000;fill-rule:evenodd;fill-opacity:1" />
								</g>
							</g>
						</g>
					</g>
				</g>
			</g>
		</g>
	</g>
</g>
</svg>
